<mxfile host="Electron" modified="2024-01-22T14:35:49.741Z" agent="Mozilla/5.0 (X11; Linux x86_64) AppleWebKit/537.36 (KHTML, like Gecko) draw.io/22.1.21 Chrome/120.0.6099.109 Electron/28.1.0 Safari/537.36" etag="UvpCQfthfyvwrz0FMquQ" version="22.1.21" type="device">
  <diagram name="界面切换示意图" id="kO2M1vlPKPkCNsUJR2EE">
    <mxGraphModel dx="1370" dy="838" grid="1" gridSize="10" guides="1" tooltips="1" connect="1" arrows="1" fold="1" page="1" pageScale="1" pageWidth="850" pageHeight="1100" math="0" shadow="0">
      <root>
        <mxCell id="0" />
        <mxCell id="1" parent="0" />
        <mxCell id="3Uv0NCDTwM2QWmhuhr1o-5" value="切换时机：&lt;br&gt;用户点击按钮，向服务端发送请求后" style="edgeStyle=orthogonalEdgeStyle;rounded=0;orthogonalLoop=1;jettySize=auto;html=1;exitX=0.75;exitY=0;exitDx=0;exitDy=0;entryX=0.5;entryY=0;entryDx=0;entryDy=0;" parent="1" source="3Uv0NCDTwM2QWmhuhr1o-1" target="3Uv0NCDTwM2QWmhuhr1o-3" edge="1">
          <mxGeometry relative="1" as="geometry">
            <Array as="points">
              <mxPoint x="165" y="90" />
              <mxPoint x="320" y="90" />
            </Array>
          </mxGeometry>
        </mxCell>
        <mxCell id="3Uv0NCDTwM2QWmhuhr1o-1" value="主界面&lt;br&gt;main_screen" style="rounded=0;whiteSpace=wrap;html=1;fillColor=#dae8fc;strokeColor=#6c8ebf;" parent="1" vertex="1">
          <mxGeometry x="60" y="150" width="140" height="150" as="geometry" />
        </mxCell>
        <mxCell id="3Uv0NCDTwM2QWmhuhr1o-6" value="切换时机：&lt;br&gt;从服务端接收到生成的图片后" style="edgeStyle=orthogonalEdgeStyle;rounded=0;orthogonalLoop=1;jettySize=auto;html=1;exitX=0.5;exitY=1;exitDx=0;exitDy=0;entryX=0.5;entryY=1;entryDx=0;entryDy=0;" parent="1" source="3Uv0NCDTwM2QWmhuhr1o-3" target="3Uv0NCDTwM2QWmhuhr1o-4" edge="1">
          <mxGeometry relative="1" as="geometry" />
        </mxCell>
        <mxCell id="3Uv0NCDTwM2QWmhuhr1o-3" value="等待界面&lt;br&gt;wait_screen" style="rounded=0;whiteSpace=wrap;html=1;fillColor=#d5e8d4;strokeColor=#82b366;" parent="1" vertex="1">
          <mxGeometry x="250" y="150" width="140" height="150" as="geometry" />
        </mxCell>
        <mxCell id="3Uv0NCDTwM2QWmhuhr1o-4" value="图片展示界面&lt;br&gt;image_screen" style="rounded=0;whiteSpace=wrap;html=1;fillColor=#f8cecc;strokeColor=#b85450;" parent="1" vertex="1">
          <mxGeometry x="450" y="150" width="140" height="150" as="geometry" />
        </mxCell>
        <mxCell id="3Uv0NCDTwM2QWmhuhr1o-7" value="切换时机：用户点击继续绘图按钮后" style="edgeStyle=orthogonalEdgeStyle;rounded=0;orthogonalLoop=1;jettySize=auto;html=1;exitX=0.25;exitY=0;exitDx=0;exitDy=0;entryX=0.25;entryY=0;entryDx=0;entryDy=0;" parent="1" source="3Uv0NCDTwM2QWmhuhr1o-4" target="3Uv0NCDTwM2QWmhuhr1o-1" edge="1">
          <mxGeometry relative="1" as="geometry">
            <Array as="points">
              <mxPoint x="485" y="40" />
              <mxPoint x="95" y="40" />
            </Array>
          </mxGeometry>
        </mxCell>
      </root>
    </mxGraphModel>
  </diagram>
</mxfile>
